<svg xmlns="http://www.w3.org/2000/svg" viewBox="0 0 220.13 54.05"><defs><style>.cls-1{fill:none}.cls-2{fill:#1b1b1b}.cls-3{fill:#fff}</style></defs><title>アセット 2</title><g id="レイヤー_2" data-name="レイヤー 2"><g id="レイヤー_1-2" data-name="レイヤー 1"><path d="M220.13 38h-.91c-.6 0-1.48.09-2.58.2-2.21.2-5.33.63-8.94 1.09s-6.66.77-9 .92a14.52 14.52 0 0 1-4 0c-2.9.22-6.15.43-9.68.53a188.29 188.29 0 0 1-25.33-.91c-9.25-.9-19.12-2.47-29-4.28-5.92-1.07-11.88-2.16-17.76-3.14a206.63 206.63 0 0 1-20.76 1.75c-9.39.33-18.87.35-27.84.41s-17.42.16-24.72.38-13.37.27-17.73.09a68 68 0 0 1-8.15-.73 30.26 30.26 0 0 1-9.89-3.18A20.86 20.86 0 0 1 0 28.49c-.43-.45 3.43 3.75 12.5 5a65.77 65.77 0 0 0 8.48.69c1.69 0 3.62.06 5.76 0l6.38-1.53C36 32 39.4 31.19 43.34 30.43c1.39-.31 5-1 10.38-1.76a143.11 143.11 0 0 1 20.6-1.49c3.46 0 7.11.1 10.89.36a169.64 169.64 0 0 0 20.08-1.14 163.94 163.94 0 0 0 21-4c.23-.53 2.95-2.55 3.84-1.65s4.22-.55 4.22-.55a13.32 13.32 0 0 1-3.82 1.8c-2.19.62-4.08.83-4.25.52a163 163 0 0 1-20.93 4.35c-4.55.66-9.17 1-13.37 1.25 7.22.75 14.81 2 22.5 3.35q2.44-.34 4.81-.76a113.12 113.12 0 0 0 22.48-6.26c3-1.2 5.61-2.41 7.86-3.52a16 16 0 0 1 3.16-3.57c1.78-1.62 3.74-3.06 5.17-2.6s3.78-.69 5.56-2a19.31 19.31 0 0 0 3-2.7 21.72 21.72 0 0 1-6.79 6.64c-4.69 3.08-9.56 4.92-10.12 4.44-2.22 1.14-4.8 2.38-7.76 3.61a113.74 113.74 0 0 1-22.5 6.6l-2.9.52c4.76.88 9.55 1.82 14.3 2.76 9.9 2 19.73 3.67 28.95 4.71a182.72 182.72 0 0 0 25.3 1.22c3.56-.07 6.82-.24 9.74-.44a32.37 32.37 0 0 1 5.54-1.12 30.5 30.5 0 0 1 7.06-.35c1.08.24 4.34-.06 7.28-.32s5.51-.33 5.51-.33zm-109.8-6c-12.92-2.1-25.38-3.42-36-3.3a149.83 149.83 0 0 0-20.25 1.41c-5.22.7-8.75 1.34-10.1 1.62-5.25.93-9.69 1.86-13 2.4l8.24-.25c7.45-.28 16-.43 25-.46s18.49 0 27.86-.22c6.18-.2 12.33-.54 18.25-1.2z"/><path d="M167.66 27.88L155 53.58l-25.7-12.67L142 15.22z"/><path class="cls-1" d="M167.66 27.88L155 53.58l-25.7-12.67L142 15.22z"/><path class="cls-2" d="M156.27 21.26l-13.77-7.14-1.06-.55-.58 1.11-2.05 3.96-6.05 12.26-4.11 9.7-.29.69.62.26 3.39 1.44 10.28 5.3 9.43 4.65 2.75.97.38.14.11-.31 1.32-3.74 3.75-5.77 7.9-16.03-12.04 19.85-2.44 4.95 1.76-.6-10.14-4.99-15.76-7.26.38 1.14 2.2-4.78 5.6-13.65 4.5-7.45-.58.2 4.74 2.86 21.1 9.51-10.39-6.26"/><path d="M12.14 19.76h-.79c-5 2.71-7.15 2.93-8.3 3v-.07a23.27 23.27 0 0 0 6.86-3.79 3.35 3.35 0 0 0 .72-1.08l1.58 1.13s.34.24.34.48-.19.31-.41.33zm13.06-2.47H7.1a20.1 20.1 0 0 0-3.1.29l-.55-1c1.8.14 3.53.17 4 .17h15.13l.91-1c.24-.26.26-.29.36-.29s.26.1.46.29l1 .94a.58.58 0 0 1 .22.38c.03.2-.16.22-.33.22zm-1.42-13.1h-9v2.18h4.1l.29-.43c.12-.17.29-.43.46-.43a.72.72 0 0 1 .37.19l.74.58c.17.14.26.24.26.36s-.12.24-.24.34a4.61 4.61 0 0 0-.53.43c0 .82.1 4.44.12 5.16 0 .55.1 1.42.1 1.94a1 1 0 0 1-.94 1c-.55 0-.53-.48-.53-.82H9.24c0 .43 0 .58-.12.74a1.4 1.4 0 0 1-.91.36c-.36 0-.38-.24-.38-.38V15c0-.82.1-3.12.1-3.94 0-1 0-3.7-.1-4.56-.07-.58-.1-.62-.12-1l1.82.86h4V4.19H8.42a17.46 17.46 0 0 0-3.1.29l-.55-1.06c1.8.17 3.53.19 4 .19h4.75a7.24 7.24 0 0 0-.46-3l2.11.62c.26.07.41.12.41.31s-.07.19-.29.38-.43.34-.5.38 0 1 0 1.25h6.41l.8-.83c.24-.26.26-.29.38-.29a1.11 1.11 0 0 1 .43.24l1.1.89a.47.47 0 0 1 .24.38c-.01.22-.2.25-.37.25zM19 6.95H9.24V9H19zm0 2.66H9.24v1.8H19zM19 12H9.24v2.1H19zm4.1 10.75c-.67 0-1-.34-1.85-1.2a14 14 0 0 0-2.16-1.75 13.17 13.17 0 0 0-2.54-1.37v-.14c4.34.55 7.3 2.23 7.3 3.65a.74.74 0 0 1-.74.8zm4.98-6.53a.63.63 0 0 1-.67-.67c0-.41.17-.65.62-1.22a6.31 6.31 0 0 0 1.42-3.55h.14a6.4 6.4 0 0 1 .26 1.94c0 2.78-1.03 3.5-1.77 3.5zm4.34-8.62c0 .55-.1 13.71.1 17.83v1.15c0 .36 0 1.18-1 1.18-.62 0-.65-.41-.65-.86 0-.29.17-6 .17-6.7 0-1.06.07-8.09.07-8.76a21.57 21.57 0 0 0-.46-5.64l2.06.62c.31.1.43.14.43.34s-.48.67-.72.84zm2.38 5.66c-.5 0-.62-.46-.77-1a5.48 5.48 0 0 0-1.1-2.35l.14-.17c2.06 1.32 2.52 1.61 2.52 2.57a.89.89 0 0 1-.79.96zm14.83 13.26h-12a19.44 19.44 0 0 0-3.07.26l-.58-1c1.8.14 3.55.19 4 .19h4v-6.7h-2a20 20 0 0 0-3.1.26l-.55-1c1.8.14 3.53.19 4 .19h1.57v-5.69h-4a18.61 18.61 0 0 1-3.6 5l-.17-.1A33.19 33.19 0 0 0 38 8.71a8.76 8.76 0 0 0 0-1.13l2 .67c.22.07.41.14.41.38s-.43.43-.89.6c-.29.79-.65 1.75-1.3 3.17h3.67c-.1-5-.1-5.62-.43-6.53l2.23.6c.31.1.48.14.48.36s0 .24-.94 1v4.6h2.87l.74-.94c.17-.22.24-.29.36-.29s.22.07.43.26l1.08.91c.17.14.24.26.24.36s-.22.26-.36.26h-5.42v5.69h2.28l.77-.94c.22-.26.24-.29.36-.29s.19 0 .43.24l1.1.94c.12.1.24.19.24.36s-.19.26-.36.26h-4.82v6.7h3.74l.74-1c.14-.19.22-.31.36-.31s.24.07.43.24l1.3 1.06a.47.47 0 0 1 .22.36c.04.17-.16.22-.33.22zM63.55 7.76a6.62 6.62 0 0 1-.26 1c-.19 1.08-.38 5.9-.48 6.89 1.08-.07 4.9-.14 6-.14a6.78 6.78 0 0 0 .72 0c.14 0 .84-.14.94-.14.6 0 2.18.67 2.18 1.56 0 .26-.12.41-.34.41s-.84-.17-1.25-.26a19 19 0 0 0-5.23-.65c-2.09 0-8.14.41-10.3 1.1-.17 0-.94.38-1 .38a2.81 2.81 0 0 1-2-2.26 2 2 0 0 1 .12-.62 2.54 2.54 0 0 0 2.14 1.37h.86c4.44-.48 4.94-.55 6-.6.26-4.18.31-4.82.31-5.47 0-1.82-.24-2.5-.62-3-.5 0-1.42.1-2.38.24-.17 0-.89.17-1 .17a2.23 2.23 0 0 1-1.44-.89 1.74 1.74 0 0 1-.5-1.2 3.86 3.86 0 0 0 2.71 1c1.2 0 7-.58 7.37-.67a3.31 3.31 0 0 0 .84-.31.53.53 0 0 1 .31-.07c.14 0 1.63.34 1.63 1 0 .29-.36.29-.55.29-1.18 0-2.23.1-5.3.31.25.13.52.39.52.56zM76.63 11a11.47 11.47 0 0 0 2.69.1c.43 0 8.38 0 10.06-.24a1.92 1.92 0 0 0 .77-.17 1.4 1.4 0 0 1 .46-.07c.12 0 2.23.24 2.23.94s-.62.58-1.27.58c-.36 0-2.62-.14-3.12-.14-1.44 0-8.23.12-9.41.24a6.83 6.83 0 0 0-1.66.34 2.24 2.24 0 0 1-.74.22c-.17 0-.31 0-.89-.7a2.65 2.65 0 0 1-.7-1.73 1.83 1.83 0 0 1 .19-.94A2.35 2.35 0 0 0 76.63 11zm22.7 10.44c4.3-3 6.12-9.41 6.12-10.68a1.11 1.11 0 0 0-.5-.91c-4.13.48-4.92.72-5.83 1.1a2.08 2.08 0 0 1-.7.24 2.58 2.58 0 0 1-1.68-2.42 6.87 6.87 0 0 1 .07-.7 2.92 2.92 0 0 0 2.33 1.51c.94 0 6.77-.7 8-.82s2.78-.26 4.18-.36a2.21 2.21 0 0 0 .91-.22 1.05 1.05 0 0 1 .36-.12 5.34 5.34 0 0 1 2 .86.7.7 0 0 1 .24.58c0 .26-.1.53-.43.53s-1.58-.22-1.85-.24a31.06 31.06 0 0 0-3.6-.22 28.39 28.39 0 0 0-2.93.14c.34.24 1.32.94 1.32 1.18s-.41.58-.46.67a3 3 0 0 0-.26.7c-1.18 3.91-3.24 7.94-7.3 9.34zm4.08-17.14a15.42 15.42 0 0 0 4.34-.53 3.94 3.94 0 0 1 1.2-.26c.58 0 1.92.14 1.92.84 0 .43-.29.43-1.15.48-3.43.14-3.79.22-7 .5h-.26a2.18 2.18 0 0 1-1.56-.55 1.43 1.43 0 0 1-.48-1.3 4.73 4.73 0 0 0 2.99.83zm12.7 15.77a13.19 13.19 0 0 0 3.36-4.58 15.51 15.51 0 0 0 1.25-6.89c0-2 0-2.21-1.7-2.59a1.69 1.69 0 0 1 1.2-.6c.74 0 2.09.62 2.09 1.15 0 .14-.17.77-.19.91 0 .36 0 2-.07 2.28a13.48 13.48 0 0 1-2.47 7.75 8.25 8.25 0 0 1-3.34 2.74zm19.54-11.13c-1.27 3.34-4 5.93-6.7 8.11-.26.22-1.56 1.08-1.75 1.32-.6.79-.67.89-.91.89-.46 0-1.37-1.73-1.37-2s.22-.82.24-.94a34.26 34.26 0 0 0 .19-5.38c0-1 0-4.68-.12-5.5-.07-.53-.19-.84-1.61-1.42a2.22 2.22 0 0 1 1.13-.43 4.15 4.15 0 0 1 2.09 1 .62.62 0 0 1 .24.48 8.44 8.44 0 0 1-.22.84 9.77 9.77 0 0 0-.26 1.78c-.07 1.58-.12 6.84-.12 8.59 0 .36 0 .41.07.41.29 0 4.7-2.16 8.93-7.94z"/><path class="cls-3" d="M158.4 34l1-.19a.57.57 0 0 1 .47 0c.14.09.17.23.22.41l.5 1.87a.55.55 0 0 1-.06.51c-.13.2-.31.17-.53.1s-1-.48-1.46-.75c0 0-2.83.29-4.13.34v-.2a17.8 17.8 0 0 0 3.59-1.71l-4.36-2.93c-.16.24-.47.61-.63.85-1 1.51-3.6 7.76-.55 13.63a9.76 9.76 0 0 0 2.35 3l-.07.1a2.76 2.76 0 0 0-3 0 13.07 13.07 0 0 1-1.86-7.12 21.55 21.55 0 0 1 2.12-8.37c-3.42 4-6.42 5.8-10.21 5.89a17.1 17.1 0 0 1-6.13-1l.12-.18a14 14 0 0 0 9.85-1 19.49 19.49 0 0 0 6.88-6.57l-3.25-2.18a25.23 25.23 0 0 1-8.52 2.65l-.07-.19c5.26-1.38 10.88-5.29 11.78-6.63a5.12 5.12 0 0 0 .33-.58l1.36 2.25a.45.45 0 0 1 0 .42c-.23.34-.91 0-1.16-.17-1.05.71-1.95 1.26-3.14 1.91z"/><path d="M189.59 29.74c-1 .45-2 .84-2.38 1a69.29 69.29 0 0 1-7 2.09 7.73 7.73 0 0 1-6.64-1.87 22.67 22.67 0 0 1-.17 2.36 16.18 16.18 0 0 1-.31 2c.16.53.26.87 0 1-.11 0-.24 0-.5-.12l-1.85-.69a8.48 8.48 0 0 0 2.16-5.14c-.28-.64-.31-.73 0-.86 0 0 .75-.27.88.09a1.32 1.32 0 0 1 0 .65c0 .24.1.63 1.17 1.19A53 53 0 0 0 181 19.9l-9.71 3.49a19.64 19.64 0 0 0-2.8 1.29l-.89-.78c1.74-.47 3.41-1 3.81-1.17l4.22-1.52c-1.32-3.66-1.46-4.06-1.53-4.19a56.83 56.83 0 0 1-7.79 3.67l-.06-.16a98.85 98.85 0 0 0 12.93-8.29 12.35 12.35 0 0 0 1.07-1.13l1.65 1a.82.82 0 0 1 .26.29c.06.16-.11.27-.2.3a5.13 5.13 0 0 1-.6 0l-.61.07a70.46 70.46 0 0 1-6.23 3.95L176 17c.13 0 .41.08.46.22a.62.62 0 0 1-.07.43l-.41.48c.15.43.84 2.27 1 2.66l4.02-1.5.68-1.24c.18-.29.16-.34.25-.37s.2 0 .4.06l2.26.82a.6.6 0 0 1 .33.29.48.48 0 0 1-.3.59c-.45.24-1.7.81-2.09 1a43.1 43.1 0 0 1-7.17 11.2c2.34.92 5.49-.19 6.91-.7a46.5 46.5 0 0 0 6.43-3 16.32 16.32 0 0 0 1.51-1l.11.09a4.15 4.15 0 0 0-.73 2.71zm23-25.35H196.2c-.08 8.92-.1 11.21-2.16 14.79a11.84 11.84 0 0 1-3.9 4.11l-.08-.13a12.8 12.8 0 0 0 3-4.32 16.49 16.49 0 0 0 1.51-6c-2.39 1.87-2.68 2.08-2.81 2.16.13.44-.16.88-.44.88-.13 0-.13 0-.26-.21l-1.33-2.16c.94.05 2-.23 4.86-1a30.82 30.82 0 0 0 .13-3.2c0-2.18-.08-4.34-.26-6.53l2.05 1h5.1a15.94 15.94 0 0 0 0-2 3.82 3.82 0 0 0-.46-1.78l2.39.52a.37.37 0 0 1 .34.39c0 .26-.21.42-.83.81v2.05h6.81l.7-1c.21-.31.26-.39.42-.39s.26.08.49.29l1.25 1c.13.13.26.23.26.44s-.21.28-.39.28zm-19.76 5.93c-.6 0-.68-.42-.81-.94a10.07 10.07 0 0 0-.6-1.51 2.17 2.17 0 0 0-.83-1l.1-.1c1.35.29 3 1.48 3 2.63a.93.93 0 0 1-.87.92zm20.31 11.93h-14.7a19.22 19.22 0 0 0-3.35.31l-.6-1.12c2.26.18 4.08.18 4.55.18 0-.75.08-5.23.08-5.64a14.34 14.34 0 0 0-.34-4.08l2.13.6c.29.08.44.1.44.31a.52.52 0 0 1-.29.39c-.08.08-.49.39-.57.47v8h3.07V9h-2.34a21.21 21.21 0 0 0-3.33.29l-.62-1.12c1.35.1 3 .21 4.32.21h8.11l.55-.68c.1-.13.29-.36.44-.36s.13 0 .49.26l1 .7c.1.1.26.26.26.42s-.29.29-.39.29H205v5.69h3.2l.78-.94c0-.05.26-.34.39-.34a1.08 1.08 0 0 1 .49.29l1.14.91c.08.08.29.26.29.42s-.29.29-.39.29H205v6.29h4.94l1-1.25s.26-.31.42-.31a1.29 1.29 0 0 1 .52.29l1.4 1.2a.56.56 0 0 1 .26.42c-.02.29-.28.29-.41.29z"/></g></g></svg>